<svg xmlns="http://www.w3.org/2000/svg" xmlns:xlink="http://www.w3.org/1999/xlink" width="288" zoomAndPan="magnify" viewBox="0 0 216 89.999999" height="120" preserveAspectRatio="xMidYMid meet" version="1.0"><defs><clipPath id="d9e6408680"><path d="M 70.257812 27 L 146.007812 27 L 146.007812 62 L 70.257812 62 Z M 70.257812 27 " clip-rule="nonzero"/></clipPath></defs><g clip-path="url(#d9e6408680)"><path fill="#747c81" d="M 90.304688 27 L 93.738281 27 C 93.910156 27 94.054688 27.144531 94.054688 27.316406 L 94.054688 61.550781 C 94.054688 61.636719 94.023438 61.710938 93.964844 61.773438 C 93.902344 61.835938 93.828125 61.867188 93.738281 61.867188 L 90.304688 61.867188 C 90.21875 61.867188 90.144531 61.835938 90.082031 61.773438 C 90.019531 61.710938 89.988281 61.636719 89.988281 61.550781 L 89.988281 27.316406 C 89.988281 27.144531 90.132812 27 90.304688 27 Z M 113.902344 55.167969 L 113.902344 56.03125 C 113.902344 56.40625 113.84375 56.921875 113.699219 57.585938 C 113.585938 58.214844 113.238281 58.875 112.691406 59.507812 C 112.144531 60.140625 111.335938 60.71875 110.238281 61.175781 C 109.144531 61.636719 107.640625 61.867188 105.710938 61.867188 C 103.777344 61.867188 102.277344 61.636719 101.179688 61.175781 C 100.085938 60.71875 99.277344 60.171875 98.730469 59.507812 C 98.183594 58.875 97.835938 58.214844 97.71875 57.554688 C 97.605469 56.894531 97.515625 56.40625 97.515625 56.03125 L 97.515625 36.542969 C 97.515625 36.371094 97.660156 36.226562 97.835938 36.226562 L 101.269531 36.226562 C 101.441406 36.226562 101.585938 36.371094 101.585938 36.542969 L 101.585938 54.796875 C 101.585938 55.398438 101.671875 55.828125 101.757812 56.175781 C 101.84375 56.519531 102.015625 56.867188 102.277344 57.152344 C 102.535156 57.46875 102.941406 57.726562 103.488281 57.929688 C 104.007812 58.128906 104.730469 58.246094 105.625 58.246094 C 106.546875 58.246094 107.296875 58.128906 107.84375 57.929688 C 108.390625 57.726562 108.796875 57.46875 109.085938 57.179688 C 109.371094 56.894531 109.574219 56.578125 109.660156 56.234375 C 109.75 55.886719 109.863281 55.601562 109.863281 54.765625 L 109.863281 36.542969 C 109.863281 36.371094 110.007812 36.226562 110.179688 36.226562 L 113.613281 36.226562 C 113.785156 36.226562 113.929688 36.371094 113.929688 36.542969 L 113.929688 55.171875 L 113.902344 55.171875 Z M 125.585938 36.226562 L 127.890625 36.226562 C 128.09375 36.226562 128.238281 36.429688 128.179688 36.628906 L 127.402344 39.617188 C 127.375 39.761719 127.230469 39.847656 127.113281 39.847656 L 125.5 39.847656 C 124.632812 39.847656 123.941406 39.964844 123.394531 40.195312 C 122.875 40.421875 122.441406 40.683594 122.152344 41 C 121.894531 41.269531 121.710938 41.585938 121.605469 41.945312 C 121.515625 42.292969 121.488281 42.609375 121.488281 42.894531 L 121.488281 61.578125 C 121.488281 61.667969 121.457031 61.742188 121.394531 61.800781 C 121.332031 61.863281 121.257812 61.894531 121.171875 61.894531 L 117.710938 61.894531 C 117.621094 61.894531 117.546875 61.863281 117.488281 61.800781 C 117.425781 61.742188 117.394531 61.667969 117.394531 61.578125 L 117.394531 42.089844 C 117.394531 41.746094 117.449219 41.226562 117.59375 40.566406 C 117.710938 39.90625 118.054688 39.273438 118.605469 38.613281 C 119.152344 37.980469 119.960938 37.40625 121.054688 36.945312 C 122.125 36.457031 123.652344 36.226562 125.585938 36.226562 Z M 78.421875 36.226562 C 81.21875 36.226562 83.265625 36.773438 84.59375 37.867188 C 85.894531 38.957031 86.554688 40.339844 86.554688 41.976562 L 86.554688 56.0625 C 86.554688 56.636719 86.441406 57.269531 86.238281 57.929688 C 86.039062 58.617188 85.632812 59.25 85.027344 59.796875 C 84.421875 60.371094 83.585938 60.832031 82.546875 61.234375 C 81.507812 61.609375 80.121094 61.808594 78.449219 61.808594 C 76.75 61.808594 75.394531 61.609375 74.355469 61.234375 C 73.316406 60.859375 72.476562 60.371094 71.875 59.796875 C 71.265625 59.222656 70.863281 58.589844 70.660156 57.929688 C 70.460938 57.238281 70.34375 56.605469 70.34375 56.0625 L 70.34375 53.820312 C 70.34375 52.613281 70.664062 51.519531 71.265625 50.542969 C 71.902344 49.566406 72.765625 48.847656 73.921875 48.441406 C 74.5 48.242188 75.132812 48.042969 75.882812 47.78125 C 76.605469 47.523438 77.324219 47.292969 78.015625 47.035156 C 78.710938 46.804688 79.289062 46.574219 79.804688 46.402344 C 80.324219 46.203125 80.644531 46.113281 80.757812 46.058594 C 80.875 46 81.046875 45.914062 81.246094 45.800781 C 81.449219 45.683594 81.652344 45.511719 81.855469 45.3125 C 82.054688 45.082031 82.199219 44.824219 82.34375 44.5625 C 82.488281 44.273438 82.546875 43.929688 82.546875 43.554688 L 82.546875 42.664062 C 82.546875 42.351562 82.488281 42.035156 82.34375 41.6875 C 82.230469 41.34375 82 41.054688 81.679688 40.769531 C 81.363281 40.480469 80.929688 40.25 80.410156 40.078125 C 79.890625 39.90625 79.230469 39.820312 78.421875 39.820312 C 76.835938 39.820312 75.769531 40.136719 75.191406 40.796875 C 74.679688 41.394531 74.402344 42.082031 74.355469 42.867188 C 74.355469 43.039062 74.210938 43.15625 74.039062 43.15625 L 70.578125 43.15625 C 70.488281 43.152344 70.414062 43.125 70.351562 43.0625 C 70.289062 43 70.257812 42.925781 70.257812 42.839844 L 70.257812 42.003906 C 70.257812 41.199219 70.402344 40.453125 70.71875 39.765625 C 71.007812 39.074219 71.496094 38.441406 72.191406 37.921875 C 72.855469 37.40625 73.691406 36.976562 74.730469 36.6875 C 75.738281 36.398438 76.980469 36.226562 78.421875 36.226562 Z M 82.519531 48.847656 C 82.460938 49.160156 82.296875 49.398438 82.027344 49.566406 C 81.765625 49.738281 81.539062 49.824219 81.304688 49.910156 C 80.816406 50.082031 80.296875 50.253906 79.75 50.457031 C 79.203125 50.65625 78.679688 50.859375 78.191406 51 C 77.613281 51.203125 77.066406 51.375 76.574219 51.574219 C 76.179688 51.75 75.816406 51.96875 75.480469 52.238281 C 75.191406 52.496094 74.929688 52.8125 74.699219 53.214844 C 74.46875 53.617188 74.355469 54.105469 74.355469 54.710938 C 74.355469 55.917969 74.640625 56.808594 75.21875 57.410156 C 75.796875 57.984375 76.863281 58.300781 78.421875 58.300781 C 80.007812 58.300781 81.105469 57.984375 81.679688 57.382812 C 82.257812 56.75 82.546875 55.886719 82.546875 54.738281 L 82.546875 48.847656 Z M 137.875 36.226562 C 140.671875 36.226562 142.71875 36.773438 144.046875 37.867188 C 145.34375 38.957031 146.007812 40.339844 146.007812 41.976562 L 146.007812 56.0625 C 146.007812 56.636719 145.894531 57.269531 145.691406 57.929688 C 145.488281 58.617188 145.085938 59.25 144.480469 59.796875 C 143.875 60.371094 143.035156 60.832031 141.996094 61.234375 C 140.960938 61.609375 139.574219 61.808594 137.902344 61.808594 C 136.203125 61.808594 134.84375 61.609375 133.804688 61.234375 C 132.769531 60.859375 131.929688 60.371094 131.324219 59.796875 C 130.71875 59.222656 130.316406 58.589844 130.113281 57.929688 C 129.910156 57.238281 129.796875 56.605469 129.796875 56.0625 L 129.796875 53.820312 C 129.796875 52.613281 130.113281 51.519531 130.71875 50.542969 C 131.355469 49.566406 132.21875 48.847656 133.371094 48.441406 C 133.949219 48.242188 134.585938 48.042969 135.335938 47.78125 C 136.054688 47.523438 136.777344 47.292969 137.46875 47.035156 C 138.160156 46.804688 138.738281 46.574219 139.257812 46.402344 C 139.777344 46.203125 140.09375 46.113281 140.210938 46.058594 C 140.324219 46 140.5 45.914062 140.699219 45.800781 C 140.902344 45.683594 141.105469 45.511719 141.304688 45.3125 C 141.507812 45.082031 141.652344 44.824219 141.796875 44.5625 C 141.941406 44.273438 141.996094 43.929688 141.996094 43.554688 L 141.996094 42.664062 C 141.996094 42.351562 141.941406 42.035156 141.796875 41.6875 C 141.679688 41.34375 141.449219 41.054688 141.132812 40.769531 C 140.816406 40.480469 140.382812 40.25 139.863281 40.078125 C 139.34375 39.90625 138.679688 39.820312 137.875 39.820312 C 136.285156 39.820312 135.21875 40.136719 134.644531 40.796875 C 134.132812 41.394531 133.851562 42.082031 133.804688 42.867188 C 133.804688 43.039062 133.660156 43.15625 133.488281 43.15625 L 130.027344 43.15625 C 129.941406 43.152344 129.867188 43.121094 129.804688 43.0625 C 129.742188 43 129.710938 42.925781 129.710938 42.839844 L 129.710938 42.003906 C 129.710938 41.199219 129.855469 40.453125 130.171875 39.765625 C 130.460938 39.074219 130.949219 38.441406 131.640625 37.921875 C 132.304688 37.40625 133.140625 36.976562 134.179688 36.6875 C 135.21875 36.398438 136.429688 36.226562 137.875 36.226562 Z M 141.96875 48.847656 C 141.914062 49.160156 141.75 49.398438 141.480469 49.566406 C 141.21875 49.738281 140.988281 49.824219 140.757812 49.910156 C 140.269531 50.082031 139.75 50.253906 139.199219 50.457031 C 138.652344 50.65625 138.132812 50.859375 137.644531 51 C 137.066406 51.203125 136.515625 51.375 136.027344 51.574219 C 135.632812 51.746094 135.265625 51.96875 134.929688 52.238281 C 134.644531 52.496094 134.382812 52.8125 134.152344 53.214844 C 133.921875 53.617188 133.804688 54.105469 133.804688 54.710938 C 133.804688 55.917969 134.09375 56.808594 134.671875 57.410156 C 135.25 57.984375 136.316406 58.300781 137.875 58.300781 C 139.460938 58.300781 140.554688 57.984375 141.132812 57.382812 C 141.710938 56.75 141.996094 55.886719 141.996094 54.738281 L 141.996094 48.847656 Z M 141.96875 48.847656 " fill-opacity="1" fill-rule="evenodd"/></g></svg>