<svg width="32" height="32" viewBox="0 0 32 32" fill="none" xmlns="http://www.w3.org/2000/svg">
<g clip-path="url(#clip0_36807_184)">
<path d="M29.7262 18.4685L27.1383 12.9831C27.1451 12.8191 27.151 12.654 27.151 12.489C27.151 5.59157 21.5592 -0.000244141 14.6618 -0.000244141C7.76432 -0.000244141 2.17151 5.59157 2.17151 12.489C2.17151 16.3679 3.94007 19.8328 6.71351 22.1238V26.5388C6.71351 26.9695 6.97132 27.3591 7.36682 27.5261L17.7116 31.9148C18.0416 32.0554 18.4215 32.0203 18.7223 31.8221C19.0221 31.6228 19.2028 31.2869 19.2028 30.9275V27.1873C19.2028 26.5945 19.6833 26.114 20.2761 26.114H25.5729C26.1657 26.114 26.6452 25.6326 26.6452 25.0408V21.8152C26.6452 21.405 26.8806 21.03 27.2497 20.8503L29.2243 19.8913C29.7526 19.6345 29.9762 18.9998 29.7262 18.4685ZM14.6618 20.9822C9.97132 20.9822 6.16857 17.1804 6.16857 12.489C6.16857 7.79857 9.97132 3.99682 14.6618 3.99682C19.3522 3.99682 23.1539 7.79857 23.1539 12.489C23.1539 17.1804 19.3522 20.9822 14.6618 20.9822Z" fill="#2A7AE4"/>
<path d="M20.652 13.5388C20.8815 13.5212 21.0573 13.3308 21.0573 13.1003V12.0524C21.0573 11.8219 20.8815 11.6316 20.652 11.613L19.2624 11.5046C19.1755 11.4987 19.0983 11.4431 19.0651 11.3611L18.6071 10.2576C18.574 10.1765 18.5886 10.0827 18.6452 10.0154L19.5515 8.95581C19.7009 8.782 19.6911 8.52219 19.528 8.36012L18.7868 7.61794C18.6238 7.45581 18.364 7.44606 18.1901 7.5945L17.1306 8.50075C17.0641 8.55737 16.9695 8.573 16.8894 8.53981L15.7859 8.08181C15.7038 8.04862 15.6482 7.97144 15.6413 7.88356L15.5339 6.49487C15.5153 6.26437 15.324 6.08862 15.0945 6.08862H14.0456C13.8161 6.08862 13.6248 6.26444 13.6071 6.49487L13.4997 7.88356C13.4929 7.97144 13.4362 8.04862 13.3542 8.08181L12.2516 8.53981C12.1696 8.573 12.0768 8.55737 12.0095 8.50075L10.9499 7.5945C10.7751 7.44606 10.5153 7.45581 10.3532 7.61794L9.61202 8.36012C9.44989 8.52225 9.43914 8.782 9.58858 8.95581L10.4948 10.0154C10.5515 10.0827 10.5671 10.1765 10.5329 10.2576L10.0758 11.3611C10.0426 11.4431 9.96452 11.4987 9.87658 11.5046L8.48695 11.613C8.25845 11.6316 8.08264 11.822 8.08264 12.0524V13.1003C8.08264 13.3308 8.25845 13.5212 8.48695 13.5388L9.87658 13.6472C9.96445 13.654 10.0426 13.7097 10.0758 13.7917L10.5329 14.8952C10.5671 14.9753 10.5515 15.0701 10.4948 15.1364L9.58858 16.197C9.43914 16.3708 9.44989 16.6306 9.61202 16.7927L10.3532 17.5339C10.5153 17.6969 10.7751 17.7067 10.9499 17.5583L12.0095 16.6511C12.0768 16.5954 12.1696 16.5797 12.2516 16.6139L13.3542 17.071C13.4363 17.1042 13.4929 17.1814 13.4997 17.2682L13.6071 18.6589C13.6247 18.8874 13.8161 19.0641 14.0456 19.0641H15.0945C15.324 19.0641 15.5153 18.8874 15.5339 18.6589L15.6413 17.2682C15.6481 17.1813 15.7038 17.1042 15.7859 17.071L16.8894 16.6139C16.9695 16.5797 17.0642 16.5954 17.1306 16.6511L18.1901 17.5583C18.364 17.7067 18.6238 17.697 18.7868 17.5339L19.528 16.7927C19.6911 16.6306 19.7009 16.3708 19.5515 16.197L18.6452 15.1364C18.5886 15.07 18.5739 14.9753 18.6071 14.8952L19.0651 13.7917C19.0983 13.7097 19.1755 13.6541 19.2624 13.6472L20.652 13.5388ZM14.57 14.7693C13.984 14.7693 13.4332 14.5408 13.0191 14.1267C12.6051 13.7127 12.3775 13.1619 12.3775 12.5769C12.3775 11.991 12.6051 11.4402 13.0191 11.0261C13.4332 10.6111 13.984 10.3836 14.57 10.3836C15.1559 10.3836 15.7067 10.6111 16.1208 11.0261C16.5348 11.4402 16.7624 11.991 16.7624 12.5769C16.7624 13.1619 16.5348 13.7127 16.1208 14.1267C15.7067 14.5408 15.1559 14.7693 14.57 14.7693Z" fill="#2A7AE4"/>
</g>
<defs>
<clipPath id="clip0_36807_184">
<rect width="32" height="32" fill="white"/>
</clipPath>
</defs>
</svg>
