<svg width="32" height="32" viewBox="0 0 32 32" fill="none" xmlns="http://www.w3.org/2000/svg">
<path d="M13.1875 1.51875C12.8188 1.65 12.7313 1.89375 12.775 2.75C12.7938 3.14375 12.8313 3.55 12.85 3.65C12.8875 3.81875 12.8813 3.83125 12.7438 3.7875C12.075 3.5875 11.2688 3.71875 10.6875 4.11875C9.97502 4.60625 9.64377 5.325 9.70627 6.2625C9.73752 6.7625 9.73127 6.8125 9.63127 6.8125C9.42502 6.8125 8.78127 7.18125 8.51877 7.45C8.00627 7.9875 7.74377 8.78125 7.86877 9.45625C7.93127 9.80625 7.91877 9.875 7.77502 9.875C7.56877 9.875 6.98752 10.2125 6.70627 10.4875C6.11877 11.0812 5.86252 12 6.08752 12.7625C6.20627 13.1812 6.20627 13.1875 6.11252 13.1875C5.91252 13.1875 5.35002 13.5187 5.09377 13.7875C4.36252 14.5312 4.20002 15.6 4.66877 16.525C4.76252 16.7187 5.11877 17.1375 5.56877 17.5937L6.30627 18.35L3.33752 21.3125C1.70002 22.9437 0.281267 24.3937 0.181267 24.525C-0.043733 24.825 -0.049983 25.0562 0.156267 25.3C0.343767 25.525 0.593767 25.5937 0.850017 25.5C0.956267 25.4625 2.36252 24.1 4.15627 22.3062L7.28752 19.1812L7.56252 19.3062C7.95627 19.475 8.35627 19.5187 8.78127 19.4437C9.85627 19.2437 10.6438 18.4375 10.7313 17.4375C10.7688 17.0687 10.7688 17.0625 10.975 17.0312C11.0938 17.0125 11.2813 16.9875 11.3938 16.9687C11.7438 16.9125 12.2125 16.6562 12.5188 16.3437C12.9313 15.9312 13.1313 15.5187 13.2188 14.8687L13.2563 14.5812L13.6313 14.5437C14.3375 14.4812 15.075 13.9687 15.4063 13.3062C15.4938 13.1437 15.5938 12.8062 15.6375 12.5625L15.7125 12.125H15.9375C16.6938 12.1187 17.525 11.5375 17.9 10.75C18.075 10.3875 18.0938 10.2812 18.0938 9.775C18.0938 9.2375 18.0813 9.175 17.8563 8.74375L17.6188 8.28125L19.7938 6.11875C22.125 3.79375 22.1938 3.7375 22.7063 3.8375C23.1938 3.93125 23.625 4.4375 23.625 4.91875C23.625 5.35 23.4563 5.56875 21.875 7.15625C20.35 8.6875 20.3125 8.73125 20.3125 8.98125C20.3125 9.40625 20.7313 9.7 21.1188 9.55C21.2125 9.51875 21.8438 8.9375 22.5313 8.25625C23.8875 6.9125 24.0125 6.825 24.5375 6.90625C24.8438 6.95 25.1938 7.2125 25.35 7.50625C25.4563 7.7125 25.4625 8.16875 25.3688 8.41875C25.3375 8.5125 24.7313 9.175 24.025 9.88125C22.6625 11.2562 22.6313 11.3 22.8188 11.7125C22.9125 11.9187 23.2688 12.0875 23.4875 12.0312C23.5875 12.0062 24.05 11.6062 24.6 11.0562C25.1438 10.525 25.6438 10.0875 25.775 10.0312C26.4063 9.76875 27.1625 10.175 27.2875 10.8562C27.375 11.3125 27.2375 11.525 26.2125 12.5687C25.6625 13.1312 25.2375 13.6125 25.2125 13.7062C25.1 14.175 25.5063 14.5875 25.9688 14.475C26.0563 14.45 26.3938 14.1812 26.7125 13.875C27.3375 13.2812 27.5063 13.2 28.0063 13.2687C28.7313 13.3625 29.1188 14.2312 28.7313 14.8937C28.5375 15.2125 22.2438 21.4937 21.7188 21.8812C20.3438 22.9 18.9 23.4687 17.25 23.625C16.8063 23.6687 16.575 23.7187 16.4813 23.7937C16.4063 23.8562 15.0563 25.2 13.4875 26.7875C10.7375 29.55 10.625 29.675 10.625 29.9C10.625 30.2437 10.9 30.5 11.2563 30.5H11.525L13.6625 28.3687L15.7938 26.2375L16.3813 26.525C17.1438 26.8937 17.8063 27.0625 18.6563 27.1062L19.3438 27.1375L21.0313 28.8187C22.7125 30.4875 22.725 30.5 22.9875 30.5C23.4313 30.5 23.725 30.0875 23.5688 29.7C23.525 29.6 22.675 28.7062 21.6688 27.7062L19.8438 25.8875L18.9688 25.8562C18.0625 25.825 17.5313 25.7062 16.975 25.425L16.7375 25.3L16.9375 25.0937C17.1125 24.9125 17.1875 24.8875 17.5813 24.85C18.95 24.7187 20.5688 24.1437 21.7875 23.3625C22.575 22.85 23.2938 22.1812 26.5438 18.925C30.0063 15.45 30.0125 15.4437 30.1188 14.6687C30.2563 13.6187 29.6625 12.575 28.7125 12.1812C28.4 12.05 28.3688 12.0187 28.4 11.875C28.4188 11.7875 28.4688 11.5625 28.5063 11.3687C28.7125 10.3062 27.9688 9.125 26.9063 8.8125L26.6563 8.7375V8.04375C26.6563 7.40625 26.6438 7.3125 26.4813 6.9875C26.3813 6.7875 26.1813 6.5 26.025 6.34375C25.7625 6.06875 25.0875 5.6875 24.8688 5.6875C24.7813 5.6875 24.7688 5.65 24.8188 5.45C24.9438 4.90625 24.8375 4.23125 24.5375 3.725C24.3125 3.3375 23.8063 2.90625 23.3875 2.74375C22.8938 2.55625 22.0875 2.54375 21.6875 2.725L21.4 2.85625L21.0313 2.51875C20.825 2.33125 20.4375 2.06875 20.1563 1.93125C19.2375 1.4875 19.225 1.48125 16.1563 1.4625C14.075 1.44375 13.35 1.45625 13.1875 1.51875ZM19.1125 2.8375C19.5063 2.9625 20.1 3.30625 20.2938 3.5125L20.4313 3.6625L18.575 5.51875L16.7188 7.375L15.8938 6.55L15.0625 5.71875L16.2188 5.7375C17.175 5.75625 17.4063 5.74375 17.5813 5.65625C17.95 5.48125 18.0563 5.01875 17.7875 4.73125C17.5875 4.5125 17.525 4.50625 16.25 4.4875C15.0125 4.4625 14.85 4.41875 14.4188 3.94375C14.125 3.61875 13.9 2.875 14.05 2.725C14.075 2.7 15.15 2.6875 16.4375 2.7C18.4313 2.725 18.8313 2.74375 19.1125 2.8375ZM12.4563 5.025C12.7125 5.1375 16.7188 9.1625 16.8063 9.39375C17.15 10.3 16.15 11.2062 15.2938 10.775C15.0313 10.6437 11.35 6.9875 11.1188 6.63125C10.5313 5.725 11.475 4.6 12.4563 5.025ZM10.6563 8.11875C10.8188 8.19375 11.5 8.8375 12.6 9.94375C14.4313 11.7937 14.4875 11.8687 14.4063 12.4125C14.3625 12.7187 14.1 13.0687 13.8063 13.225C13.5813 13.3375 13.1188 13.3375 12.8563 13.225C12.7438 13.175 11.875 12.3562 10.925 11.4C9.43127 9.89375 9.18752 9.61875 9.12502 9.3875C8.88752 8.475 9.80002 7.71875 10.6563 8.11875ZM8.80002 11.1625C9.02502 11.25 11.2688 13.4187 11.7 13.9562C12.3 14.7 11.8125 15.7625 10.875 15.7625C10.7125 15.7625 10.5 15.7187 10.4 15.6687C10.1313 15.525 7.39377 12.75 7.31252 12.5437C6.98127 11.6375 7.90002 10.7812 8.80002 11.1625ZM7.09377 14.4062C7.30627 14.45 9.25002 16.3312 9.41877 16.65C9.46877 16.75 9.51252 16.9625 9.51252 17.125C9.51252 17.9875 8.57502 18.5125 7.84377 18.0625C7.74377 18 7.23127 17.5125 6.70627 16.9875C5.91877 16.1875 5.75002 15.9812 5.68752 15.7562C5.51877 15.1187 5.87502 14.525 6.52502 14.3687C6.71877 14.325 6.75002 14.3312 7.09377 14.4062Z" fill="#2A7AE4"/>
<path d="M28.0313 19.075C27.6688 19.275 27.575 19.7312 27.8375 20.0187C28.2438 20.4562 28.9125 20.175 28.8938 19.5812C28.8813 19.1562 28.3938 18.875 28.0313 19.075Z" fill="#2A7AE4"/>
<path d="M29.4313 20.7437C29.2875 20.8874 29.25 20.9812 29.25 21.1874C29.25 21.4374 29.2813 21.4812 30.0688 22.2812C30.5188 22.7437 30.9875 23.1624 31.1063 23.2187C31.3813 23.3499 31.6375 23.2937 31.8438 23.0499C32.1563 22.6812 32.025 22.3999 31.1188 21.5249C30.2188 20.6624 30.0875 20.5624 29.8375 20.5624C29.675 20.5624 29.5688 20.6124 29.4313 20.7437Z" fill="#2A7AE4"/>
</svg>
