<svg width="32" height="41" viewBox="0 0 32 41" fill="none" xmlns="http://www.w3.org/2000/svg">
<path d="M25.8033 17.2605C25.8033 17.1972 25.8033 17.1294 25.8033 17.0661V12.6618C25.8043 12.1958 25.6694 11.7396 25.4151 11.3491C25.1608 10.9586 24.7982 10.6507 24.3716 10.4631C23.9451 10.2754 23.4731 10.2163 23.0134 10.2928C22.5537 10.3693 22.1263 10.5781 21.7834 10.8938V10.1929C21.7823 9.50969 21.5103 8.8548 21.0272 8.3717C20.5441 7.8886 19.8892 7.61666 19.206 7.61547H18.6679C18.1417 7.61048 17.6267 7.76843 17.1938 8.06765C17.0934 7.53374 16.8351 7.04226 16.4522 6.65684C16.0949 6.3037 15.6451 6.0588 15.1546 5.95042C14.664 5.84204 14.1528 5.8746 13.68 6.04434C13.2072 6.21407 12.7921 6.51407 12.4825 6.90969C12.1729 7.30531 11.9815 7.78042 11.9304 8.28017C11.5436 7.95059 11.0706 7.73854 10.5672 7.66907C10.0637 7.5996 9.55096 7.67561 9.08934 7.88811C8.62772 8.10062 8.23653 8.44076 7.96195 8.86838C7.68738 9.29599 7.54087 9.79324 7.53972 10.3014V13.9731C6.88589 14.0765 6.29035 14.4096 5.86018 14.9128C5.43 15.4159 5.1934 16.0559 5.1929 16.7179V17.0706C5.03501 18.7286 5.08818 20.4 5.35116 22.0446C5.90735 25.4405 7.40859 27.7556 9.6695 28.8047V34.0093C9.6689 34.1029 9.68683 34.1957 9.72224 34.2824C9.75765 34.369 9.80984 34.4478 9.87583 34.5142C9.94181 34.5806 10.0203 34.6333 10.1067 34.6693C10.1931 34.7052 10.2858 34.7238 10.3794 34.7238L21.0916 34.7735C21.185 34.7745 21.2776 34.7566 21.3638 34.7208C21.4501 34.6851 21.5282 34.6322 21.5935 34.5655C21.6606 34.4993 21.7139 34.4204 21.7504 34.3335C21.7869 34.2466 21.8058 34.1533 21.8061 34.0591V28.9584C26.7574 25.9469 25.8757 17.7624 25.8305 17.4097C25.8267 17.3592 25.8176 17.3092 25.8033 17.2605ZM22.4346 12.6618C22.4514 12.4148 22.5614 12.1835 22.7423 12.0145C22.9232 11.8455 23.1615 11.7515 23.409 11.7515C23.6566 11.7515 23.8949 11.8455 24.0758 12.0145C24.2567 12.1835 24.3667 12.4148 24.3835 12.6618V17.0661C24.3667 17.313 24.2567 17.5444 24.0758 17.7134C23.8949 17.8824 23.6566 17.9764 23.409 17.9764C23.1615 17.9764 22.9232 17.8824 22.7423 17.7134C22.5614 17.5444 22.4514 17.313 22.4346 17.0661V12.6618ZM17.5194 10.1929C17.5194 9.88829 17.6404 9.59615 17.8558 9.38076C18.0712 9.16537 18.3633 9.04436 18.6679 9.04436H19.2151C19.5197 9.04436 19.8118 9.16537 20.0272 9.38076C20.2426 9.59615 20.3636 9.88829 20.3636 10.1929V15.5286C20.3648 15.6802 20.336 15.8306 20.2788 15.971C20.2216 16.1113 20.1372 16.239 20.0304 16.3466C19.9236 16.4543 19.7966 16.5397 19.6567 16.5979C19.5167 16.6562 19.3667 16.6862 19.2151 16.6862H18.6679C18.3633 16.6862 18.0712 16.5652 17.8558 16.3498C17.6404 16.1344 17.5194 15.8423 17.5194 15.5377V10.1929ZM13.3457 8.54696C13.3445 8.30337 13.4157 8.06491 13.5502 7.86181C13.6847 7.65872 13.8765 7.50013 14.1012 7.40617C14.326 7.3122 14.5735 7.28709 14.8126 7.33401C15.0516 7.38093 15.2713 7.49778 15.4439 7.66973C15.6752 7.90311 15.8052 8.21833 15.8056 8.54696V14.0274C15.7287 13.9957 15.67 13.9822 15.6519 13.9731L15.5479 13.946H13.3457V8.54696ZM8.9641 10.3059C8.96529 9.97933 9.09588 9.66651 9.32726 9.43598C9.55863 9.20545 9.87194 9.07601 10.1986 9.07601C10.3602 9.07542 10.5204 9.10682 10.6699 9.16842C10.8194 9.23002 10.9553 9.32059 11.0696 9.43492C11.1839 9.54925 11.2745 9.68507 11.3361 9.83457C11.3977 9.98406 11.4291 10.1443 11.4285 10.3059V13.9505H8.9641V10.3059ZM20.766 27.9094C20.6506 27.9701 20.5538 28.0611 20.4861 28.1726C20.4184 28.2841 20.3823 28.412 20.3817 28.5424V33.3446L11.0984 33.2994V28.3254C11.0993 28.1812 11.0566 28.0402 10.9759 27.9207C10.8952 27.8013 10.7803 27.7091 10.6462 27.6562C5.67221 25.8203 6.61727 17.2876 6.62632 17.2017C6.62856 17.1746 6.62856 17.1474 6.62632 17.1203V16.7269C6.62632 16.3671 6.76924 16.0221 7.02364 15.7677C7.27804 15.5133 7.62308 15.3704 7.98286 15.3704H15.3173C15.4101 15.4179 15.4883 15.4898 15.5433 15.5784C15.7061 15.8497 15.5117 16.3154 15.376 16.5732C14.6842 17.9297 11.4737 18.2553 10.402 18.2689C10.2219 18.2771 10.0516 18.3531 9.92518 18.4817C9.79879 18.6103 9.72568 18.7819 9.72053 18.9622C9.71538 19.1424 9.77857 19.3179 9.89742 19.4535C10.0163 19.5891 10.182 19.6747 10.3613 19.6932C10.6462 19.6932 17.2797 20.1906 16.9496 25.6892C16.9397 25.8784 17.005 26.0639 17.1311 26.2054C17.2573 26.3468 17.4342 26.4327 17.6234 26.4443C17.7171 26.4511 17.8113 26.439 17.9003 26.4088C17.9894 26.3787 18.0715 26.331 18.1418 26.2686C18.2122 26.2063 18.2693 26.1305 18.31 26.0458C18.3506 25.961 18.3739 25.869 18.3785 25.7751C18.591 22.1576 16.3889 20.1454 14.0285 19.128C15.1183 18.7708 16.1538 18.183 16.6421 17.2288C16.6421 17.2062 16.6421 17.1836 16.6738 17.161C16.915 17.4558 17.2185 17.6934 17.5626 17.8568C17.9066 18.0202 18.2825 18.1053 18.6634 18.1061H19.2105C19.8887 18.1036 20.5386 17.8339 21.0193 17.3555C21.0658 17.7374 21.2036 18.1024 21.421 18.4198C21.6384 18.7372 21.929 18.9977 22.2683 19.179C22.6076 19.3604 22.9855 19.4575 23.3702 19.462C23.7549 19.4665 24.135 19.3783 24.4785 19.2049C24.483 21.6602 24.0082 26.2137 20.766 27.9049V27.9094Z" fill="#2A7AE4"/>
<path d="M20.6665 36.5325H10.8858C10.6963 36.5325 10.5146 36.6077 10.3806 36.7417C10.2467 36.8757 10.1714 37.0574 10.1714 37.2469C10.1714 37.4364 10.2467 37.6181 10.3806 37.7521C10.5146 37.8861 10.6963 37.9614 10.8858 37.9614H20.6665C20.7603 37.9614 20.8533 37.9429 20.9399 37.907C21.0266 37.8711 21.1054 37.8185 21.1717 37.7521C21.2381 37.6858 21.2907 37.607 21.3266 37.5203C21.3625 37.4336 21.381 37.3407 21.381 37.2469C21.381 37.1531 21.3625 37.0602 21.3266 36.9735C21.2907 36.8868 21.2381 36.8081 21.1717 36.7417C21.1054 36.6754 21.0266 36.6228 20.9399 36.5869C20.8533 36.551 20.7603 36.5325 20.6665 36.5325Z" fill="#2A7AE4"/>
<path d="M19.5541 39.5713H11.9981C11.8087 39.5713 11.6269 39.6466 11.4929 39.7805C11.359 39.9145 11.2837 40.0963 11.2837 40.2857C11.2837 40.4752 11.359 40.6569 11.4929 40.7909C11.6269 40.9249 11.8087 41.0002 11.9981 41.0002H19.5541C19.7436 41.0002 19.9253 40.9249 20.0593 40.7909C20.1933 40.6569 20.2685 40.4752 20.2685 40.2857C20.2685 40.0963 20.1933 39.9145 20.0593 39.7805C19.9253 39.6466 19.7436 39.5713 19.5541 39.5713Z" fill="#2A7AE4"/>
<path d="M16.0678 4.47735C16.2577 4.47616 16.4394 4.39988 16.5733 4.26518C16.7072 4.13048 16.7823 3.94829 16.7823 3.75838V1.22617C16.7823 1.03668 16.707 0.85496 16.573 0.720976C16.439 0.586991 16.2573 0.511719 16.0678 0.511719C15.8783 0.511719 15.6966 0.586991 15.5626 0.720976C15.4287 0.85496 15.3534 1.03668 15.3534 1.22617V3.73577C15.3504 3.8317 15.3666 3.92725 15.4011 4.01681C15.4356 4.10637 15.4876 4.18811 15.5542 4.25722C15.6208 4.32634 15.7006 4.38142 15.7888 4.41923C15.877 4.45703 15.9719 4.4768 16.0678 4.47735Z" fill="#2A7AE4"/>
<path d="M8.05056 6.0691C8.11297 6.17813 8.20321 6.26865 8.31204 6.33141C8.42088 6.39417 8.54442 6.42692 8.67005 6.42632C8.79531 6.42593 8.91835 6.39322 9.02727 6.33137C9.10869 6.28452 9.18007 6.22207 9.23733 6.14761C9.29458 6.07314 9.33659 5.98812 9.36095 5.8974C9.38531 5.80668 9.39154 5.71205 9.37929 5.61892C9.36703 5.52578 9.33654 5.43598 9.28954 5.35465L8.03247 3.17966C7.93773 3.01536 7.7816 2.89543 7.59843 2.84624C7.41526 2.79706 7.22006 2.82265 7.05576 2.9174C6.89146 3.01214 6.77153 3.16827 6.72234 3.35143C6.67316 3.5346 6.69875 3.72981 6.79349 3.89411L8.05056 6.0691Z" fill="#2A7AE4"/>
<path d="M4.3744 10.5005L2.1994 9.24796C2.11805 9.20105 2.02826 9.17062 1.93514 9.15841C1.84203 9.1462 1.74743 9.15246 1.65673 9.17681C1.56603 9.20116 1.48102 9.24314 1.40655 9.30035C1.33208 9.35756 1.2696 9.42887 1.22269 9.51023C1.17578 9.59158 1.14535 9.68137 1.13314 9.77449C1.12094 9.8676 1.12719 9.9622 1.15154 10.0529C1.17589 10.1436 1.21787 10.2286 1.27508 10.3031C1.33229 10.3776 1.4036 10.44 1.48496 10.4869L3.65995 11.7395C3.76644 11.8032 3.88855 11.8361 4.01265 11.8344C4.17056 11.8357 4.32445 11.7847 4.45027 11.6893C4.57609 11.5938 4.66675 11.4594 4.70808 11.307C4.74941 11.1546 4.73908 10.9928 4.67871 10.8469C4.61834 10.701 4.51133 10.5792 4.3744 10.5005Z" fill="#2A7AE4"/>
<path d="M3.17613 17.7986H0.661996C0.481744 17.8129 0.31351 17.8946 0.190822 18.0275C0.0681334 18.1603 0 18.3345 0 18.5153C0 18.6961 0.0681334 18.8703 0.190822 19.0031C0.31351 19.1359 0.481744 19.2177 0.661996 19.232H3.17613C3.35638 19.2177 3.52461 19.1359 3.6473 19.0031C3.76999 18.8703 3.83812 18.6961 3.83812 18.5153C3.83812 18.3345 3.76999 18.1603 3.6473 18.0275C3.52461 17.8946 3.35638 17.8129 3.17613 17.7986Z" fill="#2A7AE4"/>
<path d="M22.9727 6.33137C23.0817 6.39322 23.2047 6.42593 23.33 6.42632C23.4556 6.42692 23.5791 6.39417 23.688 6.33141C23.7968 6.26865 23.887 6.17813 23.9495 6.0691L25.2065 3.89411C25.2534 3.81275 25.2839 3.72296 25.2961 3.62985C25.3083 3.53673 25.302 3.44213 25.2777 3.35143C25.2533 3.26074 25.2113 3.17573 25.1541 3.10125C25.0969 3.02678 25.0256 2.9643 24.9443 2.91739C24.8629 2.87048 24.7731 2.84005 24.68 2.82785C24.5869 2.81564 24.4923 2.82189 24.4016 2.84624C24.3109 2.8706 24.2259 2.91258 24.1514 2.96978C24.0769 3.02699 24.0145 3.09831 23.9675 3.17966L22.7105 5.35465C22.6635 5.43598 22.633 5.52578 22.6207 5.61891C22.6085 5.71204 22.6147 5.80668 22.6391 5.8974C22.6634 5.98812 22.7054 6.07314 22.7627 6.14761C22.8199 6.22207 22.8913 6.28452 22.9727 6.33137Z" fill="#2A7AE4"/>
<path d="M30.515 10.4869C30.6793 10.3922 30.7992 10.2361 30.8484 10.0529C30.8976 9.86973 30.872 9.67453 30.7773 9.51023C30.6825 9.34593 30.5264 9.22599 30.3432 9.17681C30.1601 9.12763 29.9648 9.15322 29.8005 9.24796L27.6256 10.5005C27.4886 10.5792 27.3816 10.701 27.3212 10.8469C27.2609 10.9928 27.2505 11.1546 27.2919 11.307C27.3332 11.4594 27.4239 11.5938 27.5497 11.6893C27.6755 11.7847 27.8294 11.8357 27.9873 11.8344C28.1114 11.8361 28.2335 11.8032 28.34 11.7395L30.515 10.4869Z" fill="#2A7AE4"/>
<path d="M31.338 17.7986H28.8239C28.6436 17.8129 28.4754 17.8946 28.3527 18.0275C28.23 18.1603 28.1619 18.3345 28.1619 18.5153C28.1619 18.6961 28.23 18.8703 28.3527 19.0031C28.4754 19.1359 28.6436 19.2177 28.8239 19.232H31.338C31.5182 19.2177 31.6865 19.1359 31.8092 19.0031C31.9319 18.8703 32 18.6961 32 18.5153C32 18.3345 31.9319 18.1603 31.8092 18.0275C31.6865 17.8946 31.5182 17.8129 31.338 17.7986Z" fill="#2A7AE4"/>
</svg>
