<svg width="32" height="32" viewBox="0 0 32 32" fill="none" xmlns="http://www.w3.org/2000/svg">
<g clip-path="url(#clip0_36805_165)">
<path d="M5.89001 17.6424C5.92174 17.6444 5.953 17.6461 5.98473 17.6461C6.61117 17.6461 7.1429 17.1632 7.1922 16.5279L7.53637 12.0882L9.86266 10.4117V16.8517C9.86266 17.1755 9.95022 17.4777 10.0903 17.7447L7.47898 28.565C7.29095 29.3471 7.77105 30.1323 8.55146 30.3207C8.66701 30.3482 8.78163 30.3605 8.89485 30.3605C9.55162 30.3605 10.1468 29.9135 10.3078 29.2479L12.7961 18.936L15.6238 20.2845L15.3866 24.1122C15.3369 24.9133 15.9457 25.6048 16.7479 25.6539C16.7792 25.6559 16.8095 25.6569 16.8398 25.6569C17.602 25.6569 18.2423 25.0631 18.2905 24.2922L18.5898 19.4844C18.6257 18.8924 18.3 18.3366 17.7632 18.0819L13.7426 16.1651V11.908L15.1488 13.5865C15.3487 13.8252 15.6328 13.9777 15.9409 14.0126L20.2167 14.4976C20.263 14.5022 20.3084 14.5052 20.3549 14.5052C20.9629 14.5052 21.4874 14.0483 21.5576 13.4299C21.6333 12.7646 21.1542 12.1641 20.4893 12.0884L16.6957 11.659L13.6047 7.96985C13.5128 7.73547 13.3768 7.52381 13.2064 7.34387C13.0443 6.71696 12.4801 6.25195 11.803 6.25195C11.2987 6.25195 10.8555 6.50779 10.5945 6.89644L5.66373 10.4506C5.37493 10.6593 5.19157 10.9851 5.16466 11.3397L4.77632 16.3392C4.72329 17.008 5.22283 17.5914 5.89001 17.6424Z" fill="#2A7AE4"/>
<path d="M13.0676 6.01994C14.7299 6.01994 16.0776 4.67233 16.0776 3.00997C16.0776 1.34761 14.7299 0 13.0676 0C11.4052 0 10.0576 1.34761 10.0576 3.00997C10.0576 4.67233 11.4052 6.01994 13.0676 6.01994Z" fill="#2A7AE4"/>
<path d="M27.2442 16.3716L23.6729 17.4864L24.495 18.3083L20.5907 21.44C20.476 21.5319 20.4098 21.671 20.4098 21.818V26.1817H13.0676C12.8001 26.1817 12.5827 26.3987 12.5827 26.6665V31.0304H5.24065C4.97316 31.0304 4.75574 31.2472 4.75574 31.5152C4.75574 31.7832 4.973 32.0001 5.24065 32.0001H13.0676C13.3351 32.0001 13.5525 31.7832 13.5525 31.5152V27.1514H20.8945C21.1616 27.1514 21.3795 26.9345 21.3795 26.6665V22.0509L25.1854 18.9977L26.1296 19.9419L27.2442 16.3716Z" fill="#2A7AE4"/>
</g>
<defs>
<clipPath id="clip0_36805_165">
<rect width="32" height="32" fill="white"/>
</clipPath>
</defs>
</svg>
