<svg width="32" height="32" viewBox="0 0 32 32" fill="none" xmlns="http://www.w3.org/2000/svg">
<path d="M7.6 16.675L7.075 17.225L8.075 18.1501L8.6 17.6C8.825 17.725 9.075 17.825 9.3 17.85L9.325 18.6L10.675 18.55L10.65 17.8C10.9 17.75 11.125 17.625 11.325 17.5L11.875 18.0251L12.8 17.0251L12.25 16.5C12.375 16.275 12.475 16.025 12.5 15.8L13.25 15.7751L13.2 14.4L12.45 14.425C12.4 14.175 12.275 13.95 12.15 13.75L12.675 13.2001L11.675 12.275L11.15 12.8251C10.925 12.7001 10.675 12.6001 10.45 12.5751L10.425 11.8251L9.075 11.875L9.1 12.625C8.85 12.675 8.625 12.8 8.425 12.925L7.875 12.4L6.95 13.4L7.5 13.925C7.375 14.15 7.275 14.4 7.25 14.625L6.5 14.65L6.55 16L7.3 15.975C7.35 16.25 7.45 16.475 7.6 16.675ZM9.825 13.4C10.85 13.375 11.675 14.15 11.7 15.175C11.725 16.2 10.95 17.025 9.925 17.05C8.9 17.075 8.075 16.3 8.05 15.275C8.025 14.275 8.825 13.425 9.825 13.4ZM10.2 21.0751L10.175 20.1501L9.45 20.175C9.425 20.125 9.425 20.075 9.4 20.05L9.925 19.5251L9.25 18.875L8.75 19.4001C8.7 19.3751 8.65 19.35 8.6 19.35L8.575 18.625L7.65 18.6501L7.675 19.375C7.65 19.375 7.625 19.4 7.575 19.425C7.55 19.425 7.525 19.4501 7.525 19.4501L7 18.9501L6.35 19.625L6.875 20.125C6.85 20.175 6.825 20.2251 6.825 20.2751L6.1 20.3L6.125 21.225L6.85 21.2001C6.875 21.2501 6.9 21.3001 6.9 21.3251L6.375 21.875L7.05 22.5251L7.575 21.975C7.625 22 7.65 22.0001 7.7 22.0251L7.725 22.7751L8.65 22.75L8.625 22C8.65 22 8.675 21.975 8.7 21.975C8.725 21.975 8.725 21.9751 8.75 21.9501L9.3 22.475L9.95 21.8L9.4 21.2751C9.425 21.2251 9.45 21.2001 9.45 21.1501L10.2 21.0751ZM8.675 20.975C8.525 21.25 8.175 21.375 7.9 21.225C7.625 21.075 7.5 20.7251 7.65 20.4501C7.8 20.1751 8.15 20.0501 8.425 20.2001C8.7 20.3501 8.8 20.7 8.675 20.975ZM6.4 18.9501L5.5 18.125C5.525 18.05 5.575 17.9751 5.6 17.9001L6.825 17.875L6.775 16.35L5.55 16.375C5.525 16.3 5.5 16.2251 5.45 16.1501L6.275 15.25L5.175 14.2001L4.35 15.1C4.3 15.075 4.25 15.05 4.2 15.05C4.175 15.05 4.15 15.025 4.1 15L4.075 13.8L2.55 13.85L2.575 15.05C2.5 15.075 2.425 15.1 2.35 15.15L1.475 14.3251L0.425 15.425L1.325 16.25C1.3 16.325 1.25 16.4 1.225 16.475L0 16.5L0.0500002 18.0251L1.3 17.975C1.325 18.05 1.35 18.1 1.4 18.175L0.55 19.1L1.65 20.1501L2.5 19.225C2.55 19.25 2.575 19.2501 2.6 19.2751C2.625 19.2751 2.65 19.3 2.675 19.3L2.725 20.5751L4.25 20.5251L4.2 19.2751C4.275 19.2501 4.325 19.2251 4.4 19.2001L5.325 20.05L6.4 18.9501ZM3.825 18.5751C3.075 18.8001 2.25 18.375 2.025 17.625C1.8 16.875 2.225 16.0501 2.975 15.8251C3.725 15.6001 4.55 16.0251 4.775 16.7751C5.025 17.5251 4.6 18.3251 3.825 18.5751ZM22.2 7.92505C24.35 7.92505 26.1 9.67505 26.1 11.8251C26.1 13.9751 24.35 15.725 22.2 15.725C20.05 15.725 18.3 13.9751 18.3 11.8251C18.3 9.67505 20.05 7.92505 22.2 7.92505ZM27.1 16.725H18.225C16.95 16.725 15.675 16.9001 14.75 18.1501C14.35 18.7751 10.65 23.425 10.65 23.425H5.45C4.525 23.425 3.75 24.2 3.75 25.125C3.75 26.05 4.525 26.8251 5.45 26.8251H11.375C11.8 26.8251 12.25 26.6501 12.55 26.3251L16.025 22.1C16.125 22 16.2 21.9501 16.375 21.9501C16.65 21.9501 16.875 22.1251 16.875 22.4501V30.1H27.625V22.5751C27.625 22.3001 27.8 22.0751 28.125 22.0751C28.4 22.0751 28.625 22.2501 28.625 22.5751V30.125H32V21.6C32 18.925 29.8 16.725 27.1 16.725Z" fill="#2A7AE4"/>
</svg>
